<?xml version="1.0" standalone="no"?><!DOCTYPE svg PUBLIC "-//W3C//DTD SVG 1.1//EN" "http://www.w3.org/Graphics/SVG/1.1/DTD/svg11.dtd"><svg t="1691155566418" class="icon" viewBox="0 0 1024 1024" version="1.1" xmlns="http://www.w3.org/2000/svg" p-id="17509" xmlns:xlink="http://www.w3.org/1999/xlink" width="128" height="128"><path d="M780.8 535.467c-10.667 0-23.467 2.133-34.133 4.266L608 281.6c19.2-23.467 32-53.333 32-85.333 0-70.4-57.6-130.134-130.133-130.134s-130.134 57.6-130.134 130.134c0 32 10.667 59.733 29.867 81.066h-2.133L268.8 537.6c-8.533-2.133-19.2-4.267-29.867-4.267-70.4 0-130.133 57.6-130.133 130.134S166.4 793.6 238.933 793.6c51.2 0 96-29.867 117.334-74.667h305.066C682.667 761.6 727.467 793.6 778.667 793.6c70.4 0 130.133-57.6 130.133-130.133s-57.6-128-128-128zM512 153.6c23.467 0 44.8 19.2 44.8 44.8 0 23.467-19.2 44.8-44.8 44.8s-44.8-19.2-44.8-44.8c0-25.6 21.333-44.8 44.8-44.8z m-27.733 168.533c8.533 2.134 19.2 4.267 27.733 4.267s14.933 0 23.467-2.133l140.8 264.533c-10.667 12.8-17.067 29.867-21.334 46.933H369.067c-4.267-19.2-12.8-36.266-25.6-51.2l140.8-262.4zM243.2 708.267c-23.467 0-44.8-19.2-44.8-44.8 0-23.467 19.2-44.8 44.8-44.8s44.8 19.2 44.8 44.8c-2.133 25.6-21.333 44.8-44.8 44.8z m537.6 0c-23.467 0-44.8-19.2-44.8-44.8 0-23.467 19.2-44.8 44.8-44.8s44.8 19.2 44.8 44.8c0 25.6-21.333 44.8-44.8 44.8z m196.267-270.934c-19.2-123.733-89.6-236.8-194.134-309.333-19.2-12.8-46.933-8.533-59.733 10.667-12.8 19.2-8.533 44.8 10.667 59.733C819.2 258.133 876.8 352 891.733 452.267c2.134 6.4 2.134 14.933 2.134 21.333C896 494.933 915.2 512 936.533 512h4.267c23.467-2.133 40.533-23.467 38.4-46.933 0-8.534 0-19.2-2.133-27.734z m-300.8 422.4C625.067 883.2 569.6 896 512 896c-55.467 0-108.8-10.667-157.867-34.133-21.333-10.667-46.933 0-55.466 21.333-10.667 21.333 0 46.933 21.333 55.467C381.867 966.4 445.867 979.2 514.133 979.2c70.4 0 138.667-14.933 200.534-44.8C736 923.733 744.533 898.133 736 876.8c-12.8-17.067-38.4-25.6-59.733-17.067zM128 471.467c10.667-110.934 70.4-211.2 164.267-275.2 19.2-12.8 23.466-40.534 10.666-59.734-12.8-19.2-40.533-23.466-59.733-10.666C130.133 202.667 57.6 326.4 42.667 462.933c-2.134 23.467 14.933 44.8 38.4 46.934h4.266c21.334 0 40.534-17.067 42.667-38.4z" p-id="17510"></path></svg>