<?xml version="1.0" standalone="no"?><!DOCTYPE svg PUBLIC "-//W3C//DTD SVG 1.1//EN" "http://www.w3.org/Graphics/SVG/1.1/DTD/svg11.dtd"><svg t="1691201165103" class="icon" viewBox="0 0 1024 1024" version="1.1" xmlns="http://www.w3.org/2000/svg" p-id="5128" xmlns:xlink="http://www.w3.org/1999/xlink" width="128" height="128"><path d="M182.79 64.27v895.46h658.42V64.27zM762.7 880.58H261.3V143.42h501.4z" fill="#333333" p-id="5129"></path><path d="M740.76 185.76H283.24v211.17h457.52z m-52.34 158.4H335.58V238.53h352.84zM557.75 494.02h156.84v52.77H557.75zM553.05 689.52h156.84v52.77H553.05zM553.05 767.57h156.84v52.77H553.05zM414 441.86h-52.34v52.16h-52.25v52.77h52.25v52.16H414v-52.16h52.25v-52.77H414v-52.16zM424.84 680.67l-37.01 37.07-37.01-37.07-36.89 37.44 36.77 36.82-36.77 36.82 36.89 37.44 37.01-37.07 37.01 37.07 36.89-37.44-36.77-36.82 36.77-36.82-36.89-37.44z" fill="#333333" p-id="5130"></path></svg>