<?xml version="1.0" standalone="no"?><!DOCTYPE svg PUBLIC "-//W3C//DTD SVG 1.1//EN" "http://www.w3.org/Graphics/SVG/1.1/DTD/svg11.dtd"><svg t="1691201185010" class="icon" viewBox="0 0 1024 1024" version="1.1" xmlns="http://www.w3.org/2000/svg" p-id="6137" xmlns:xlink="http://www.w3.org/1999/xlink" width="128" height="128"><path d="M799.49824 1004.86656 228.67456 1004.86656c-118.22592 0-214.0672-95.84128-214.0672-214.05696L14.60736 219.98592c0-118.22592 95.84128-214.05696 214.0672-214.05696l570.82368 0c118.21568 0 214.05184 95.83104 214.05184 214.05696l0 570.82368C1013.55008 909.02528 917.71904 1004.86656 799.49824 1004.86656L799.49824 1004.86656zM942.20288 219.98592c0-78.81728-63.88736-142.70464-142.70464-142.70464L228.67456 77.28128c-78.81216 0-142.70464 63.88736-142.70464 142.70464l0 356.88448 231.49056-231.49056 25.4208 25.41568 8.1152-8.10496 270.80704 270.80704 128.9984-128.9984 14.19776 14.208 13.30688-13.30688 163.89632 163.8912L942.20288 219.98592 942.20288 219.98592zM942.20288 769.6128l-177.81248-177.80224-128.37888 128.37888-15.4624-15.4624-14.72512 14.72512L325.05856 438.68672l-239.08864 239.08864 0 113.02912c0 78.80704 63.88736 142.70464 142.70464 142.70464l570.82368 0c78.81728 0 142.70464-63.89248 142.70464-142.70464L942.20288 769.6128 942.20288 769.6128zM656.78848 291.33824c0-39.40864 31.95392-71.35232 71.35744-71.35232 39.3984 0 71.35232 31.94368 71.35232 71.35232 0 39.40864-31.95392 71.35232-71.35232 71.35232C688.73728 362.69056 656.78848 330.74688 656.78848 291.33824L656.78848 291.33824z" fill="#262536" p-id="6138"></path></svg>