<?xml version="1.0" standalone="no"?><!DOCTYPE svg PUBLIC "-//W3C//DTD SVG 1.1//EN" "http://www.w3.org/Graphics/SVG/1.1/DTD/svg11.dtd"><svg t="1691155589427" class="icon" viewBox="0 0 1024 1024" version="1.1" xmlns="http://www.w3.org/2000/svg" p-id="17664" xmlns:xlink="http://www.w3.org/1999/xlink" width="128" height="128"><path d="M525.233718 61.761787L207.08695 245.384357v367.37415l318.146768 183.610284 318.170317-183.610284V245.384357L525.233718 61.761787z m278.785544 527.954181L525.761019 750.293951 247.52223 589.715968V268.425872L525.761019 107.836626l278.258243 160.589246v321.290096z" fill="" p-id="17665"></path><path d="M525.233718 757.750908L340.938455 643.809877V862.973555h100.964308v56.728366l83.305358 42.536292 83.033004-42.536292V862.973555H709.55253V643.809877L525.233718 757.750908zM668.597117 822.018142h-101.310381v72.647735l-42.109332 21.571216-42.319228-21.608075V822.018142h-100.964308V717.28184l143.338826 88.619323L668.597117 717.276721V822.018142zM374.214728 424.322652l67.872334-50.192907 9.767866-7.22351h-31.006319l81.13984 39.179995c3.89486 1.880877 7.765146 3.828307 11.690723 5.64468 7.418049 3.432064 15.656231 5.84229 23.858576 3.188379 2.666197-0.863135 5.297583-2.162446 7.8532-3.344009 1.50204-0.694194 2.98565-1.429344 4.477451-2.144016l46.49668-22.267458 38.652695-18.510823h-31.006319l69.078471 52.284704c5.921129 4.481546 16.87363 4.967892 23.669157 3.096229 7.125218-1.961764 14.846337-7.471291 18.35724-14.116307 3.766874-7.12829 5.654919-15.764762 3.096229-23.669157-2.623194-8.1061-7.37607-13.255219-14.116307-18.35724l-69.078471-52.284704c-8.980498-6.797575-21.82002-4.399635-31.006319 0l-78.870911 37.77113-11.271953 5.397923h31.006319l-81.455197-39.331531-11.564785-5.58427c-9.253876-4.468236-21.939815-6.705425-31.006319 0l-67.872334 50.192906-9.767866 7.223511c-6.652183 4.919769-11.837138 10.079127-14.116307 18.35724-2.025245 7.352521-1.110916 17.142912 3.096229 23.669157 4.228646 6.559009 10.524517 12.331675 18.35724 14.116307 7.556274 1.721151 17.153151 1.723199 23.669157-3.096229z" fill="" p-id="17666"></path></svg>