<?xml version="1.0" standalone="no"?><!DOCTYPE svg PUBLIC "-//W3C//DTD SVG 1.1//EN" "http://www.w3.org/Graphics/SVG/1.1/DTD/svg11.dtd"><svg t="1691148050886" class="icon" viewBox="0 0 1024 1024" version="1.1" xmlns="http://www.w3.org/2000/svg" p-id="1710" xmlns:xlink="http://www.w3.org/1999/xlink" width="128" height="128"><path d="M836.096 435.5584a51.2 51.2 0 0 1 51.2 51.2v164.3008l-203.0592-54.1184-206.5408 54.1184v-164.352a51.2 51.2 0 0 1 51.2-51.2h307.2z m0 51.2h-307.2v97.9456l142.336-37.2736 13.1072-3.4304 13.056 3.4816 138.7008 36.864V486.8096z" fill="#333333" p-id="1711"></path><path d="M677.2736 344.6272a102.4 102.4 0 0 1 102.4 102.4v37.2736h-204.8V446.976a102.4 102.4 0 0 1 102.4-102.4z m0 51.2a51.2 51.2 0 0 0-48.1792 33.9456l-1.024 3.2768h98.3552l-0.9216-3.2768a51.2512 51.2512 0 0 0-42.24-33.5872l-5.9904-0.3584zM703.1296 550.0416l4.352 20.1728 1.792 8.0896 0.512 5.4272V921.6H456.6016l-3.9936-20.736-49.4592-256-4.5568-23.4496 23.0912-6.144 242.2784-64.4096 6.6048-0.8192h32.6144z m-44.544 55.2448l-200.704 53.248L498.7904 870.4h159.8464v-265.1136z" fill="#333333" p-id="1712"></path><path d="M702.464 549.6832c-12.5952-5.7344-21.2992-6.656-32.768 1.2288-14.6944 10.1376-14.6944 21.1968-10.3424 38.9632l-0.7168-3.4304v329.8816l19.8144 4.608c33.4336 7.7824 64.9728 15.616 94.5664 23.6032 32.256 8.704 70.3488 13.0048 114.2784 13.0048h21.3504l3.84-21.0432 52.9408-291.9424 4.1984-23.2448-22.8352-6.0416-241.2032-64.0512-3.1232-1.536z m7.3728 55.552l201.0112 53.4528-44.8512 247.1936-11.264-0.512a367.104 367.104 0 0 1-56.2176-7.2704l-12.1856-2.9696a2798.08 2798.08 0 0 0-96.3072-24.064l19.8144 4.608v-270.4384z" fill="#333333" p-id="1713"></path><path d="M870.4 51.2a102.4 102.4 0 0 1 102.4 102.4l0.0512 186.112a487.8336 487.8336 0 0 0-51.2-36.5568L921.6 153.6a51.2 51.2 0 0 0-51.2-51.2H153.6a51.2 51.2 0 0 0-51.2 51.2v715.008a51.2 51.2 0 0 0 74.6496 45.568l36.0448-18.5856c6.3488 15.9744 13.4656 31.488 21.3504 46.592l-33.9456 17.4592A102.4 102.4 0 0 1 51.2 868.608V153.6a102.4 102.4 0 0 1 102.4-102.4h716.8z" fill="#333333" p-id="1714"></path><path d="M204.8 460.8m25.6 0l102.4 0q25.6 0 25.6 25.6l0 0q0 25.6-25.6 25.6l-102.4 0q-25.6 0-25.6-25.6l0 0q0-25.6 25.6-25.6Z" fill="#333333" p-id="1715"></path><path d="M204.8 614.4m25.6 0l51.2 0q25.6 0 25.6 25.6l0 0q0 25.6-25.6 25.6l-51.2 0q-25.6 0-25.6-25.6l0 0q0-25.6 25.6-25.6Z" fill="#333333" p-id="1716"></path><path d="M803.1744 950.3744c-7.1168-1.536-41.6768-8.8576-53.0944-11.0592A874.1888 874.1888 0 0 0 574.8736 921.6c-89.2928 0-157.5936 12.544-204.7488 36.864a25.6 25.6 0 0 1-23.4496-45.5168C402.1248 884.3264 478.1056 870.4 574.8736 870.4c66.048 0 123.2384 6.5024 185.088 18.6368l20.992 4.3008 10.24 2.1504 22.5792 4.8128 0.8192 0.1536 8.5504 1.792c11.8784 2.304 20.5312 3.6864 30.0032 4.7104 27.648 6.2976 65.3824 3.1744 112.8448-10.0352a25.6 25.6 0 0 1 13.7216 49.3568c-54.9376 15.2576-100.7616 19.0464-134.4 11.1616a359.1168 359.1168 0 0 1-42.24-7.0656l1.2288 0.256-1.1264-0.256zM256 64.2048l-0.1536 202.3424 31.744-27.0336a76.8 76.8 0 0 1 94.3616-4.096l5.9392 4.7104 31.6416 28.0064 0.0512-203.9296h51.2v237.6192c-1.024 18.2784-6.1952 31.6416-25.088 35.4816-11.7248 2.3552-20.5824-1.3312-39.3216-13.056l-52.1728-45.568a25.6 25.6 0 0 0-33.4336-0.2048l-55.7568 47.4112c-13.2608 9.984-22.5792 14.4896-35.7888 11.1104C212.48 332.8 207.2064 320.8704 204.8 300.544V64.2048h51.2z" fill="#333333" p-id="1717"></path></svg>