<?xml version="1.0" standalone="no"?><!DOCTYPE svg PUBLIC "-//W3C//DTD SVG 1.1//EN" "http://www.w3.org/Graphics/SVG/1.1/DTD/svg11.dtd"><svg t="1691148149032" class="icon" viewBox="0 0 1024 1024" version="1.1" xmlns="http://www.w3.org/2000/svg" p-id="2744" xmlns:xlink="http://www.w3.org/1999/xlink" width="128" height="128"><path d="M512 30.72c68.864 48.128 128.5632 80.0256 179.2 95.5904 35.2256 10.8032 87.7056 20.3776 157.3888 28.672a102.4 102.4 0 0 1 89.6 113.2544l-42.2912 372.8896a205.6704 205.6704 0 0 0-47.3088-37.376l38.7584-341.2992a51.2 51.2 0 0 0-44.8-56.6272c-72.4992-8.6528-127.6416-18.688-166.4-30.5664-47.0016-14.4384-99.4304-40.6528-157.7984-78.5408l-7.936-5.2224-3.9424 2.4576c-68.4032 40.704-123.8016 67.7376-167.2704 81.2544-34.7136 10.752-86.2208 20.48-155.5968 29.5424a51.2 51.2 0 0 0-44.288 55.5008l40.2944 426.1376c0.4096 4.3008 1.3312 8.448 2.7648 12.3904 18.176 50.432 54.2208 95.3856 109.4144 135.168 58.0096 41.8304 128.8192 79.1552 212.48 111.8208l23.552 8.9088-15.36-5.8368 9.216-3.2256c24.2688-9.0624 47.872-18.944 70.7072-29.5936 12.1856 13.9776 26.2656 26.3168 41.8304 36.608-38.7072 19.2512-79.5136 36.1472-122.2144 50.8416-98.9184-36.4032-182.3232-79.104-250.1632-128-63.1808-45.568-105.728-98.6624-127.6416-159.2832a102.656 102.656 0 0 1-5.5808-24.8832l-40.2944-426.24a102.4 102.4 0 0 1 88.6272-111.104c66.7136-8.704 115.712-17.92 147.0464-27.648C369.152 112.2816 431.7696 80.384 512 30.6688z" fill="#333333" p-id="2745"></path><path d="M795.136 651.3664a25.6 25.6 0 0 1 47.8208 18.3296l-121.856 317.7472a25.6 25.6 0 0 1-47.7696-18.3296l121.856-317.7472z" fill="#333333" p-id="2746"></path><path d="M842.9568 651.3664a25.6 25.6 0 0 0-47.8208 18.3296l121.856 317.7472a25.6 25.6 0 1 0 47.8208-18.3296l-121.856-317.7472zM513.3824 228.352a78.0288 78.0288 0 0 1 77.6704 85.4016c-23.4496 245.248-37.4784 324.1984-79.0528 324.1984-42.2912 0-54.6304-79.7696-72.8576-329.7792a74.3936 74.3936 0 0 1 68.8128-79.616c2.7136-0.2048 2.7136-0.2048 5.4272-0.2048z m0 51.2h-1.6896a23.1936 23.1936 0 0 0-21.504 24.8832c7.424 101.376 15.0528 177.3056 22.784 227.4816l-0.1536-0.9216 1.536-8.6016c7.68-45.6704 15.616-110.3872 23.808-193.8944l1.8944-19.6096a26.8288 26.8288 0 0 0-26.6752-29.3376z" fill="#333333" p-id="2747"></path><path d="M512 735.0784c14.1312 0 25.6-7.0144 25.6-35.328 0-28.2624-11.4688-39.2192-25.6-39.2192s-25.6 10.9568-25.6 39.2704c0 28.2624 11.4688 35.2768 25.6 35.2768z" fill="#333333" p-id="2748"></path><path d="M866.9696 822.9888a25.6 25.6 0 0 1 0 51.2h-120.1152a25.6 25.6 0 1 1 0-51.2h120.1152z" fill="#333333" p-id="2749"></path></svg>