<?xml version="1.0" standalone="no"?><!DOCTYPE svg PUBLIC "-//W3C//DTD SVG 1.1//EN" "http://www.w3.org/Graphics/SVG/1.1/DTD/svg11.dtd"><svg t="1691148157647" class="icon" viewBox="0 0 1024 1024" version="1.1" xmlns="http://www.w3.org/2000/svg" p-id="2908" xmlns:xlink="http://www.w3.org/1999/xlink" width="128" height="128"><path d="M179.2 591.5648v253.952a76.8 76.8 0 0 0 76.8 76.8h512a76.8 76.8 0 0 0 76.8-76.8v-252.928h51.2v252.928a128 128 0 0 1-128 128H256a128 128 0 0 1-128-128v-253.952h51.2zM743.168 51.8144a128 128 0 0 1 128 128V242.176h-51.2V179.8144a76.8 76.8 0 0 0-76.8-76.8H281.9584a76.8 76.8 0 0 0-76.8 76.8v41.6256h-51.2v-41.6256a128 128 0 0 1 128-128h461.2096z" fill="#333333" p-id="2909"></path><path d="M870.4 204.8a102.4 102.4 0 0 1 102.4 102.4v204.8a102.4 102.4 0 0 1-102.4 102.4h-151.9616l-49.5616-102.4h-310.784l-49.8176 102.4H153.6a102.4 102.4 0 0 1-102.4-102.4V307.2a102.4 102.4 0 0 1 102.4-102.4h716.8z m0 51.2H153.6a51.2 51.2 0 0 0-51.2 51.2v204.8a51.2 51.2 0 0 0 51.2 51.2h122.5728l35.84-73.5744L325.9904 460.8h375.04l13.9776 28.928 35.4816 73.472H870.4a51.2 51.2 0 0 0 50.8416-45.2096L921.6 512V307.2a51.2 51.2 0 0 0-51.2-51.2zM589.2096 665.6a25.6 25.6 0 1 1 0 51.2H436.8384a25.6 25.6 0 1 1 0-51.2h152.3712z m52.8384 130.048a25.6 25.6 0 0 1 0 51.2H387.2256a25.6 25.6 0 1 1 0-51.2h254.8224z" fill="#333333" p-id="2910"></path><path d="M794.368 409.3952a51.2 51.2 0 1 0 0-102.4 51.2 51.2 0 0 0 0 102.4z" fill="#333333" p-id="2911"></path></svg>