<?xml version="1.0" standalone="no"?><!DOCTYPE svg PUBLIC "-//W3C//DTD SVG 1.1//EN" "http://www.w3.org/Graphics/SVG/1.1/DTD/svg11.dtd"><svg t="1691148649733" class="icon" viewBox="0 0 1024 1024" version="1.1" xmlns="http://www.w3.org/2000/svg" p-id="15512" xmlns:xlink="http://www.w3.org/1999/xlink" width="128" height="128"><path d="M881 217.149l-32 0c16-28 23-54.333 21-79-1.333-12.667-5.5-25.5-12.5-38.5S839 74.815 823 64.149c-15.333-9.333-32.333-15.167-51-17.5s-38.667-0.833-60 4.5c-11.333 2.667-23 6.5-35 11.5s-24 11-36 18-24 14.833-36 23.5-23.5 18-34.5 28-21.667 20.667-32 32-20.167 23-29.5 35c-26.667-36-58.5-67.667-95.5-95s-72.833-45-107.5-53c-42.667-11.333-79.333-7-110 13-28.667 19.333-44.333 44-47 74-0.667 6-0.667 12.167 0 18.5s1.833 12.833 3.5 19.5 4 13.333 7 20 6.5 13.667 10.5 21l-32 0c-24.667 0-45.667 8.667-63 26s-26 38.333-26 63l0 114c0 19.333 5.833 36.833 17.5 52.5s26.5 26.5 44.5 32.5c-3.333 9.333-5 19.333-5 30l0 343c0 24.668 8.667 45.668 26 63 17.333 17.334 38.333 26 63 26l629 0c12 0 23.5-2.332 34.5-7 11-4.666 20.5-11 28.5-19s14.333-17.5 19-28.5 7-22.5 7-34.5l0-343c0-10.666-2-20.666-6-30 6.667-2 12.667-4.667 18-8s10.333-7 15-11 8.833-8.5 12.5-13.5 6.833-10.333 9.5-16 4.667-11.5 6-17.5 2-12.333 2-19l0-114c0-16-4-30.833-12-44.5s-18.833-24.5-32.5-32.5S897 217.149 881 217.149zM824 904.148 541 904.148l0-395 283 0c4.667 0 9 1.167 13 3.5 4 2.334 7 5.5 9 9.5s3 8.334 3 13l0 343c0 7.334-2.5 13.5-7.5 18.5S830.667 904.148 824 904.148zM576 217.149c22.667-26 47.667-48.5 75-67.5s53-31.5 77-37.5c8-2 15.667-3.167 23-3.5s14 0.167 20 1.5 11.667 3.667 17 7c12 8 18.333 17 19 27 1.333 10.667-2.333 23-11 37s-17.667 26-27 36L576 217.149zM907 306.149l0 114c0 3.333-0.667 6.667-2 10s-3.167 6.167-5.5 8.5-5.167 4.167-8.5 5.5-6.667 2-10 2L541 446.149l0-166 340 0c7.333 0 13.5 2.5 18.5 7.5S907 298.815 907 306.149zM478 509.149l0 395L195 904.149c-7.333 0-13.5-2.5-18.5-7.5s-7.5-11.166-7.5-18.5l0-343c0-4.666 1.167-9 3.5-13s5.5-7.166 9.5-9.5c4-2.333 8.333-3.5 13-3.5L478 509.149zM212 144.149c0-4.667 1.333-9.167 4-13.5s7.667-8.833 15-13.5c14.667-10 34.667-11.667 60-5 9.333 2.667 19.167 6.167 29.5 10.5s20.833 9.833 31.5 16.5 21.167 14 31.5 22 20.5 16.667 30.5 26 19.667 19.333 29 30L249 217.149c-8.667-9.333-17.333-21-26-35S210.667 155.482 212 144.149zM112 306.149c0-7.333 2.5-13.5 7.5-18.5s11.167-7.5 18.5-7.5l340 0 0 166L138 446.149c-3.333 0-6.167-0.5-8.5-1.5s-4.667-2.333-7-4-4.167-3.5-5.5-5.5-2.5-4.333-3.5-7-1.5-5.333-1.5-8L112 306.149z" fill="#272636" p-id="15513"></path></svg>