<?xml version="1.0" standalone="no"?><!DOCTYPE svg PUBLIC "-//W3C//DTD SVG 1.1//EN" "http://www.w3.org/Graphics/SVG/1.1/DTD/svg11.dtd"><svg t="1691148406971" class="icon" viewBox="0 0 1024 1024" version="1.1" xmlns="http://www.w3.org/2000/svg" p-id="8881" xmlns:xlink="http://www.w3.org/1999/xlink" width="128" height="128"><path d="M936.630857 128.64l-182.253714-42.020571c-3.913143-0.877714-8.027429-0.475429-11.721143 1.188571l-218.441143 99.931429L322.797714 103.753143c-4.352-1.828571-9.252571-1.901714-13.677714-0.164571L97.682286 185.984c-7.021714 2.724571-11.648 9.508571-11.648 17.042286l0 580.169143c0 6.034286 2.980571 11.702857 7.972571 15.085714s11.318857 4.150857 16.969143 1.938286l204.580571-79.725714 202.002286 84.242286c2.249143 0.950857 4.644571 1.408 7.04 1.408 2.596571 0 5.193143-0.548571 7.606857-1.664l29.458286-13.476571c45.129143 89.874286 103.899429 180.224 114.249143 195.949714 3.382857 5.138286 9.124571 8.228571 15.268571 8.228571s11.885714-3.090286 15.268571-8.228571c12.873143-19.565714 100.717714-154.569143 143.945143-260.516571l78.025143 17.974857c5.430857 1.206857 11.136-0.054857 15.488-3.510857 4.370286-3.456 6.893714-8.740571 6.893714-14.299429L950.802286 146.450286C950.820571 137.929143 944.932571 130.541714 936.630857 128.64zM691.163429 943.158857c-51.712-81.664-146.596571-244.608-146.596571-307.876571 0-80.822857 65.755429-146.596571 146.596571-146.596571s146.596571 65.773714 146.596571 146.596571C837.76 698.532571 742.875429 861.476571 691.163429 943.158857zM914.249143 703.616l-51.108571-11.776c7.003429-21.577143 11.209143-40.996571 11.209143-56.557714 0-100.992-82.176-183.168-183.168-183.168s-183.168 82.157714-183.168 183.168c0 30.372571 15.817143 75.190857 37.741714 122.788571l-21.522286 9.856-201.435429-84.022857c-2.249143-0.950857-4.644571-1.408-7.04-1.408-2.249143 0-4.498286 0.402286-6.637714 1.243429l-186.514286 72.704L122.605714 215.533714l192.932571-75.172571 202.002286 84.205714c4.699429 1.974857 10.020571 1.901714 14.646857-0.256l220.050286-100.662857 162.011429 37.357714L914.249143 703.616zM315.776 213.906286c-10.093714 0-18.285714 8.173714-18.285714 18.285714l0 368.182857c0 10.112 8.192 18.285714 18.285714 18.285714s18.285714-8.173714 18.285714-18.285714L334.061714 232.192C334.061714 222.08 325.869714 213.906286 315.776 213.906286zM524.580571 285.165714c-10.093714 0-18.285714 8.173714-18.285714 18.285714l0 140.452571c0 10.112 8.192 18.285714 18.285714 18.285714s18.285714-8.173714 18.285714-18.285714l0-140.452571C542.866286 293.339429 534.674286 285.165714 524.580571 285.165714zM736.054857 206.043429l0 186.093714c0 10.112 8.192 18.285714 18.285714 18.285714s18.285714-8.173714 18.285714-18.285714L772.626286 206.043429c0-10.112-8.192-18.285714-18.285714-18.285714S736.054857 195.931429 736.054857 206.043429zM691.163429 545.700571c-37.686857 0-68.352 30.683429-68.352 68.370286 0 37.686857 30.665143 68.315429 68.352 68.315429s68.352-30.646857 68.352-68.315429C759.515429 576.384 728.850286 545.700571 691.163429 545.700571zM691.163429 645.833143c-17.517714 0-31.780571-14.244571-31.780571-31.744 0-17.536 14.262857-31.798857 31.780571-31.798857s31.780571 14.262857 31.780571 31.798857C722.944 631.588571 708.681143 645.833143 691.163429 645.833143z" fill="#272636" p-id="8882"></path></svg>