<?xml version="1.0" standalone="no"?><!DOCTYPE svg PUBLIC "-//W3C//DTD SVG 1.1//EN" "http://www.w3.org/Graphics/SVG/1.1/DTD/svg11.dtd"><svg t="1691155615489" class="icon" viewBox="0 0 1429 1024" version="1.1" xmlns="http://www.w3.org/2000/svg" p-id="18985" xmlns:xlink="http://www.w3.org/1999/xlink" width="178.625" height="128"><path d="M893.45 200.72c-47.147 0-85.61 37.22-85.61 83.54 0 19.714 7.17 37.498 18.75 51.697l-93.33 99.808c-12.82-7.72-27.985-12.407-44.252-12.407-22.746 0-43.425 8.823-59.003 23.298l-89.607-72.926c6.618-11.718 10.34-25.09 10.34-39.014 0-46.044-38.462-83.541-85.61-83.541s-85.608 37.221-85.608 83.541c0 17.646 5.652 33.913 15.164 47.147l-81.336 83.817c-13.51-9.098-30.328-14.2-47.836-14.2-47.147 0-85.609 37.222-85.609 83.542 0 46.044 38.186 83.541 85.61 83.541 47.146 0 85.608-37.221 85.608-83.54 0-18.75-6.617-35.982-17.094-49.63l80.922-83.403c14.2 10.202 31.431 16.267 50.318 16.267 22.332 0 42.46-8.547 57.762-22.332l90.158 73.202c-6.066 11.58-9.65 24.124-9.65 37.91 0 46.044 38.462 83.541 85.609 83.541s85.609-37.221 85.609-83.54c0-20.128-7.72-38.463-19.851-52.8l92.777-99.395c12.82 8.134 28.674 13.097 45.63 13.097 47.148 0 85.61-37.222 85.61-83.542 0.138-46.182-38.324-83.679-85.471-83.679z m0 0" p-id="18986"></path><path d="M1041.508 0.551H117.592c-56.66 0-102.566 55.143-102.566 111.527v595.816c0 56.66 46.045 102.704 102.704 102.704h303.285v146.404H173.148c-18.06 0-32.81 14.612-32.81 32.81 0 18.059 14.75 32.81 32.81 32.81H986.09c18.06 0 32.81-14.613 32.81-32.81 0-18.06-14.613-32.81-32.81-32.81H738.223V810.736h303.285c56.659 0 102.703-46.045 102.703-102.704V112.215C1144.35 55.695 1098.305 0.551 1041.508 0.551zM672.74 956.864H486.634V810.598h186.107v146.266z m405.85-248.832c0 20.265-16.543 37.084-37.083 37.084H117.592c-20.265 0-37.084-16.543-37.084-37.084V112.353c0-20.265 16.543-37.083 37.084-37.083h924.054c20.265 0 37.083 16.543 37.083 37.083v595.68z m0 0" p-id="18987"></path></svg>