<?xml version="1.0" standalone="no"?><!DOCTYPE svg PUBLIC "-//W3C//DTD SVG 1.1//EN" "http://www.w3.org/Graphics/SVG/1.1/DTD/svg11.dtd"><svg t="1691155686615" class="icon" viewBox="0 0 1024 1024" version="1.1" xmlns="http://www.w3.org/2000/svg" p-id="20129" xmlns:xlink="http://www.w3.org/1999/xlink" width="128" height="128"><path d="M110.325 231.601l83.275 0 38.767 682.942c0.779 14.201 12.565 25.316 26.793 25.316l508.28 0c14.229 0 26.015-11.141 26.793-25.342l38.148-682.917 83.331 0c14.846 0 26.848-12.027 26.848-26.845 0-14.82-12.002-26.847-26.848-26.847l-210.236 0-13.109-70.256c0-14.82-12-26.848-26.849-26.848l-305.029 0c-14.846 0-26.846 12.028-26.846 26.848l-13.109 70.256-210.184 0c-14.847 0-26.847 12.027-26.847 26.847 0 14.819 11.974 26.846 26.821 26.846zM387.336 134.5l251.338 0 13.108 43.411-277.554 0 13.109-43.411zM778.608 231.601l-36.563 654.593-457.516 0-37.156-654.592 531.234 0zM380.075 835.857c0.538 0 1.02 0 1.557-0.026 14.819-0.832 26.121-13.531 25.263-28.325l-28.242-497.594c-0.833-14.819-13.88-25.961-28.324-25.289-14.818 0.833-26.122 13.53-25.263 28.323l28.243 497.594c0.805 14.283 12.645 25.317 26.766 25.317zM643.436 835.832c0.539 0.026 1.022 0.026 1.557 0.026 14.121 0 25.961-11.033 26.767-25.317l28.242-497.594c0.833-14.792-10.469-27.489-25.262-28.323-14.579-0.618-27.465 10.47-28.324 25.289l-28.242 497.594c-0.833 14.794 10.47 27.492 25.261 28.325zM513.019 835.857c14.847 0 26.847-12.026 26.847-26.846l0-497.595c0-14.818-12-26.847-26.847-26.847-14.846 0-26.846 12.029-26.846 26.847l0 497.595c0 14.82 12 26.846 26.846 26.846z" fill="#272636" p-id="20130"></path></svg>