<?xml version="1.0" standalone="no"?><!DOCTYPE svg PUBLIC "-//W3C//DTD SVG 1.1//EN" "http://www.w3.org/Graphics/SVG/1.1/DTD/svg11.dtd"><svg t="1691148639653" class="icon" viewBox="0 0 1024 1024" version="1.1" xmlns="http://www.w3.org/2000/svg" p-id="15343" xmlns:xlink="http://www.w3.org/1999/xlink" width="128" height="128"><path d="M215.616 251.712l188.416 0 0 51.712-188.416 0 0-51.712Z" fill="#272636" p-id="15344"></path><path d="M215.616 405.248l188.416 0 0 51.776-188.416 0 0-51.776Z" fill="#272636" p-id="15345"></path><path d="M215.616 558.784l188.416 0 0 51.712-188.416 0 0-51.712Z" fill="#272636" p-id="15346"></path><path d="M215.616 712.32l188.416 0 0 51.712-188.416 0 0-51.712Z" fill="#272636" p-id="15347"></path><path d="M870.656 98.368 64 98.368l0 751.488c0 37.696 30.592 68.16 68.096 68.16l806.656 0L938.752 166.464C938.816 128.896 908.224 98.368 870.656 98.368zM257.344 849.792 132.096 849.792l0-181.056 0 0L132.096 166.528l351.552 0 0 683.328L257.344 849.856 257.344 849.792zM870.656 345.344 870.656 345.344l0 504.512L519.104 849.856 519.104 166.528l226.368 0 0 0 125.184 0L870.656 345.344z" fill="#272636" p-id="15348"></path><path d="M600.512 251.712l188.416 0 0 51.712-188.416 0 0-51.712Z" fill="#272636" p-id="15349"></path><path d="M600.512 405.248l188.416 0 0 51.776-188.416 0 0-51.776Z" fill="#272636" p-id="15350"></path><path d="M600.512 558.784l188.416 0 0 51.712-188.416 0 0-51.712Z" fill="#272636" p-id="15351"></path><path d="M600.512 712.32l188.416 0 0 51.712-188.416 0 0-51.712Z" fill="#272636" p-id="15352"></path></svg>