<?xml version="1.0" standalone="no"?><!DOCTYPE svg PUBLIC "-//W3C//DTD SVG 1.1//EN" "http://www.w3.org/Graphics/SVG/1.1/DTD/svg11.dtd"><svg t="1691148167310" class="icon" viewBox="0 0 1024 1024" version="1.1" xmlns="http://www.w3.org/2000/svg" p-id="3070" xmlns:xlink="http://www.w3.org/1999/xlink" width="128" height="128"><path d="M339.2512 51.2a51.2 51.2 0 0 1 36.6592 15.4112l22.2208 22.784a51.2 51.2 0 0 0 36.608 15.4112h159.3344a51.2 51.2 0 0 0 37.8368-16.6912l18.432-20.224a51.2 51.2 0 0 1 37.888-16.6912H870.4a102.4 102.4 0 0 1 102.4 102.4l0.0512 276.5824a386.2016 386.2016 0 0 0-51.2-46.1824L921.6 153.6a51.2 51.2 0 0 0-51.2-51.2h-182.2208l-18.432 20.224a102.4 102.4 0 0 1-75.6736 33.3824H434.7392a102.4 102.4 0 0 1-73.216-30.8224L339.2 102.4H153.6a51.2 51.2 0 0 0-51.2 51.2v716.8a51.2 51.2 0 0 0 51.2 51.2h230.4c13.824 18.432 29.2864 35.584 46.1824 51.2512L153.6 972.8a102.4 102.4 0 0 1-102.4-102.4V153.6a102.4 102.4 0 0 1 102.4-102.4h185.6512z" fill="#333333" p-id="3071"></path><path d="M859.4432 460.8a51.2 51.2 0 0 1 50.176 40.7552l21.2992 102.4A51.2 51.2 0 0 1 880.7936 665.6h-330.1376a51.2 51.2 0 0 1-50.176-61.6448l21.3504-102.4a51.2 51.2 0 0 1 50.176-40.7552h287.4368z m0 51.2h-287.488l-21.2992 102.4h330.1376l-21.3504-102.4z" fill="#333333" p-id="3072"></path><path d="M972.8 614.4a51.2 51.2 0 0 1 51.2 51.2v153.6a51.2 51.2 0 0 1-51.2 51.2H460.8a51.2 51.2 0 0 1-51.2-51.2v-153.6a51.2 51.2 0 0 1 51.2-51.2h512z m0 51.2H460.8v153.6h512v-153.6z" fill="#333333" p-id="3073"></path><path d="M588.8 819.2a76.8 76.8 0 1 1 0 153.6 76.8 76.8 0 0 1 0-153.6z m0 51.2a25.6 25.6 0 1 0 0 51.2 25.6 25.6 0 0 0 0-51.2zM844.8 819.2a76.8 76.8 0 1 1 0 153.6 76.8 76.8 0 0 1 0-153.6z m0 51.2a25.6 25.6 0 1 0 0 51.2 25.6 25.6 0 0 0 0-51.2z" fill="#333333" p-id="3074"></path><path d="M204.8 256m25.6 0l512 0q25.6 0 25.6 25.6l0 0q0 25.6-25.6 25.6l-512 0q-25.6 0-25.6-25.6l0 0q0-25.6 25.6-25.6Z" fill="#333333" p-id="3075"></path><path d="M204.8 460.8m25.6 0l153.6 0q25.6 0 25.6 25.6l0 0q0 25.6-25.6 25.6l-153.6 0q-25.6 0-25.6-25.6l0 0q0-25.6 25.6-25.6Z" fill="#333333" p-id="3076"></path><path d="M204.8 665.6m25.6 0l51.2 0q25.6 0 25.6 25.6l0 0q0 25.6-25.6 25.6l-51.2 0q-25.6 0-25.6-25.6l0 0q0-25.6 25.6-25.6Z" fill="#333333" p-id="3077"></path><path d="M512 716.8m25.6 0l51.2 0q25.6 0 25.6 25.6l0 0q0 25.6-25.6 25.6l-51.2 0q-25.6 0-25.6-25.6l0 0q0-25.6 25.6-25.6Z" fill="#333333" p-id="3078"></path><path d="M819.2 716.8m25.6 0l51.2 0q25.6 0 25.6 25.6l0 0q0 25.6-25.6 25.6l-51.2 0q-25.6 0-25.6-25.6l0 0q0-25.6 25.6-25.6Z" fill="#333333" p-id="3079"></path></svg>