<?xml version="1.0" standalone="no"?><!DOCTYPE svg PUBLIC "-//W3C//DTD SVG 1.1//EN" "http://www.w3.org/Graphics/SVG/1.1/DTD/svg11.dtd"><svg t="1691148588498" class="icon" viewBox="0 0 1024 1024" version="1.1" xmlns="http://www.w3.org/2000/svg" p-id="14871" xmlns:xlink="http://www.w3.org/1999/xlink" width="128" height="128"><path d="M512.094197 47.679268L404.722415 98.143504v67.316364h215.091686V98.143504L512.094197 47.679268z m77.003344 93.207353H435.438975V117.647495L512.114675 81.609804l76.981842 36.064312v23.212505z" fill="" p-id="14872"></path><path d="M322.059033 139.841234v163.953733H702.477483V139.841234H322.059033z m335.600941 124.914009h-290.783432V178.880957h290.783432v85.874286z" fill="" p-id="14873"></path><path d="M676.08991 203.640552v39.382725h125.28568v659.563377H223.160926V243.023277h119.142368v-39.382725h-159.726111v739.245205h659.38215v-739.245205z" fill="" p-id="14874"></path><path d="M341.859952 471.733662l-26.018974-45.00488 26.018974-44.990545h51.903818l25.974947 44.990545-25.974947 45.00488zM465.122434 390.204745h243.573104v73.071624H465.122434zM341.859952 619.066665l-26.018974-45.005904 26.018974-45.002831h51.903818l25.974947 45.002831-25.974947 45.005904zM465.122434 537.536724h243.573104v73.071624H465.122434zM341.859952 766.386357l-26.018974-45.002832 26.018974-44.992593h51.903818l25.974947 44.992593-25.974947 45.002832zM465.122434 684.859488h243.573104v73.071624H465.122434z" fill="" p-id="14875"></path></svg>