<?xml version="1.0" standalone="no"?><!DOCTYPE svg PUBLIC "-//W3C//DTD SVG 1.1//EN" "http://www.w3.org/Graphics/SVG/1.1/DTD/svg11.dtd"><svg t="1691148534423" class="icon" viewBox="0 0 1024 1024" version="1.1" xmlns="http://www.w3.org/2000/svg" p-id="12879" xmlns:xlink="http://www.w3.org/1999/xlink" width="128" height="128"><path d="M512.66 154.833l259.335 86.74-259.336 86.75-259.335-86.75 259.335-86.74m0-75.907L78.928 223.501v36.147L512.66 404.224l433.733-144.576v-36.147L512.66 78.926z m0 440.06l-361.444-117.47H78.928v36.142l433.732 144.58 433.733-144.58v-36.142h-72.288L512.66 518.986z m0 183.435L151.214 584.946H78.928v36.147L512.66 765.67l433.733-144.576v-36.147h-72.288L512.66 702.42z m0 180.722L151.214 765.67H78.928v36.146L512.66 946.392l433.733-144.576V765.67h-72.288L512.66 883.143z m0 0" p-id="12880"></path></svg>