<?xml version="1.0" standalone="no"?><!DOCTYPE svg PUBLIC "-//W3C//DTD SVG 1.1//EN" "http://www.w3.org/Graphics/SVG/1.1/DTD/svg11.dtd"><svg t="1691148502961" class="icon" viewBox="0 0 1024 1024" version="1.1" xmlns="http://www.w3.org/2000/svg" p-id="11060" xmlns:xlink="http://www.w3.org/1999/xlink" width="128" height="128"><path d="M303.45728 547.3536 303.872 546.95936 303.45728 547.3536Z" fill="#262536" p-id="11061"></path><path d="M870.5536 282.19904c0-19.10784 15.50848-34.61632 34.63168-34.61632 19.12832 0 34.6368 15.50848 34.6368 34.61632l0 612.02432c0 32.13312-13.14304 61.35808-34.2784 82.48832-0.75264 0.73728-1.5104 1.42848-2.26304 2.08896-21.03808 19.92192-49.31072 32.20992-80.24064 32.20992L211.00544 1011.01056c-32.14848 0-61.35296-13.14304-82.5088-34.29376-21.13536-21.13536-34.2784-50.33984-34.2784-82.48832L94.21824 282.19904c0-19.10784 15.50848-34.61632 34.6368-34.61632 19.12832 0 34.6368 15.50848 34.6368 34.61632l0 612.02432c0 13.02016 5.36576 24.91392 13.9776 33.54112 8.60672 8.60672 20.50048 13.9776 33.536 13.9776l612.02944 0c12.4416 0 23.7568-4.77184 32.16384-12.544 0.44032-0.49664 0.91648-0.97792 1.37216-1.42848 8.61184-8.63232 13.9776-20.50048 13.9776-33.54112L870.5536 282.19904 870.5536 282.19904 870.5536 282.19904zM482.39616 307.10784l0 515.83488c0 19.12832 15.50848 34.61632 34.61632 34.61632 19.1232 0 34.6112-15.488 34.6112-34.61632L551.62368 307.10784c0-19.12832-15.488-34.6368-34.6112-34.6368C497.90464 272.47616 482.39616 287.98464 482.39616 307.10784L482.39616 307.10784 482.39616 307.10784zM297.73312 307.10784l0 515.83488c0 19.12832 15.50848 34.61632 34.61632 34.61632 19.12832 0 34.61632-15.488 34.61632-34.61632L366.96576 307.10784c0-19.12832-15.488-34.6368-34.61632-34.6368C313.2416 272.47616 297.73312 287.98464 297.73312 307.10784L297.73312 307.10784 297.73312 307.10784zM667.0592 307.10784l0 515.83488c0 19.12832 15.50848 34.61632 34.6368 34.61632 19.10784 0 34.61632-15.488 34.61632-34.61632L736.31232 307.10784c0-19.12832-15.50848-34.6368-34.61632-34.6368C682.56768 272.47616 667.0592 287.98464 667.0592 307.10784L667.0592 307.10784 667.0592 307.10784zM44.67712 168.3712c-19.12832 0-34.63168-15.50848-34.63168-34.61632 0-19.12832 15.50848-34.6368 34.63168-34.6368l276.70016 0L397.93664 21.46816c6.7584-6.88128 15.70816-10.32192 24.61184-10.32192L422.54848 11.04384l188.92288 0c10.51136 0 19.92192 4.67456 26.28096 12.06784l75.8272 76.0064 275.78368 0c19.12832 0 34.6368 15.50848 34.6368 34.6368 0 19.10784-15.50848 34.61632-34.6368 34.61632l-290.01728 0 0-0.1024c-8.86272 0-17.73568-3.39968-24.49408-10.17856l-77.6192-77.7984L436.90496 80.29184 362.112 156.16512c-6.36416 7.4752-15.82592 12.2112-26.40384 12.2112L44.67712 168.37632 44.67712 168.3712z" fill="#262536" p-id="11062"></path></svg>